<svg width="260" height="199" viewBox="0 0 260 199" fill="none" xmlns="http://www.w3.org/2000/svg">
<g filter="url(#filter0_d_3_1929)">
<g clip-path="url(#clip0_3_1929)">
<rect width="138.768" height="84.5368" rx="6.38013" transform="matrix(0.913545 -0.406737 0.659347 0.751838 41.7451 84.442)" fill="url(#paint0_linear_3_1929)"/>
<g filter="url(#filter1_f_3_1929)">
<path d="M142.659 128.878C107.467 147.153 70.9106 149.776 65.6462 149.146L88.1562 174.813L258.878 98.8029L225.381 60.607C221.78 78.7806 177.85 110.604 142.659 128.878Z" fill="url(#paint1_linear_3_1929)"/>
</g>
<path d="M65.9788 94.7061C65.4144 94.9574 64.8421 95.0978 64.2619 95.1272C63.6817 95.1566 63.1325 95.0741 62.6143 94.8797C62.098 94.6762 61.6543 94.3628 61.283 93.9394L61.1438 93.7806L62.5156 93.1699L62.6239 93.2934C62.9126 93.6226 63.284 93.8252 63.738 93.9011C64.1868 93.971 64.6398 93.9042 65.0971 93.7007C65.5615 93.4939 65.8388 93.2437 65.929 92.9501C66.0263 92.6533 65.9538 92.3667 65.7115 92.0904L65.6341 92.0022C65.4691 91.814 65.2779 91.6866 65.0604 91.6199C64.843 91.5532 64.6146 91.5363 64.3753 91.5693C64.1308 91.5963 63.8871 91.664 63.6442 91.7721L62.1438 92.4401L61.0609 91.2053L62.5548 89.0686L62.431 88.9275L58.6372 90.6166L57.7554 89.6111L63.071 87.2444L64.386 88.7438L62.991 90.7384L63.1148 90.8796L63.5113 90.703C63.8471 90.5535 64.2212 90.4646 64.6335 90.4364C65.053 90.405 65.4695 90.4607 65.8829 90.6037C66.2912 90.7407 66.6578 90.9945 66.9827 91.3649L67.0755 91.4708C67.4262 91.8706 67.6151 92.273 67.6423 92.6778C67.6644 93.0768 67.5332 93.454 67.249 93.8095C66.9666 94.156 66.5433 94.4548 65.9788 94.7061ZM74.9618 90.535L73.8635 89.2825L70.1768 90.9239L69.0321 89.6186L68.4542 84.8477L70.9192 83.7502L74.3535 87.6663L75.5966 87.1128L76.4784 88.1183L75.2353 88.6718L76.3336 89.9242L74.9618 90.535ZM70.6025 89.3363L72.9817 88.277L70.1816 85.0842L69.9887 85.1701L70.4788 89.1952L70.6025 89.3363ZM80.7367 88.1355C80.1508 88.3964 79.5688 88.537 78.9905 88.5573C78.4195 88.5745 77.8829 88.4781 77.381 88.2683C76.8791 88.0584 76.4476 87.7477 76.0867 87.3361L76.0093 87.2479L77.4025 86.6276L77.4722 86.707C77.73 87.001 78.0696 87.2013 78.491 87.3081C78.9144 87.4057 79.3619 87.3495 79.8334 87.1396C80.305 86.9297 80.5756 86.6661 80.6451 86.349C80.7167 86.0228 80.6055 85.6921 80.3116 85.3569L80.2342 85.2687C79.9455 84.9395 79.5874 84.7351 79.16 84.6555C78.7398 84.5728 78.3403 84.6158 77.9617 84.7844C77.7545 84.8766 77.6036 84.9765 77.5091 85.084C77.4146 85.1914 77.3555 85.2996 77.3316 85.4083C77.3078 85.517 77.2982 85.6194 77.3029 85.7154L75.6418 86.455L72.6097 82.9976L77.7324 80.7168L78.6297 81.7399L74.8787 83.4099L76.2014 84.9181L76.3943 84.8322C76.3987 84.724 76.4307 84.6075 76.4903 84.4829C76.5499 84.3583 76.6555 84.2295 76.8071 84.0966C76.9588 83.9636 77.1668 83.8383 77.4311 83.7206C77.8741 83.5234 78.3448 83.4201 78.8433 83.4108C79.3417 83.4014 79.8296 83.499 80.3069 83.7034C80.7862 83.8988 81.2167 84.2141 81.5983 84.6492L81.6911 84.755C82.0727 85.1901 82.2884 85.6173 82.3382 86.0367C82.3952 86.4528 82.2903 86.8429 82.0234 87.207C81.7514 87.5652 81.3225 87.8747 80.7367 88.1355ZM87.3437 85.0222L86.2454 83.7697L82.5587 85.4111L81.414 84.1058L80.8361 79.3349L83.3011 78.2374L86.7354 82.1535L87.9785 81.6L88.8603 82.6055L87.6172 83.159L88.7155 84.4114L87.3437 85.0222ZM82.9844 83.8235L85.3636 82.7643L82.5635 79.5714L82.3706 79.6573L82.8607 83.6824L82.9844 83.8235ZM95.636 81.5019C94.7501 81.8963 93.8639 82.0129 92.9774 81.8517C92.0857 81.6845 91.2815 81.1923 90.5647 80.375L89.2034 78.8227C88.5072 78.0289 88.2466 77.3069 88.4215 76.6567C88.5912 76.0007 89.1191 75.4754 90.005 75.081C90.8981 74.6833 91.792 74.5756 92.6869 74.7576C93.5837 74.9307 94.3802 75.4141 95.0763 76.2079L96.4377 77.7602C97.1544 78.5775 97.4228 79.3083 97.2428 79.9526C97.0647 80.5878 96.5291 81.1043 95.636 81.5019ZM94.7543 80.4964C95.2901 80.2578 95.5774 79.9624 95.616 79.6099C95.6618 79.2543 95.4887 78.8531 95.0968 78.4062L93.6581 76.7657C93.2611 76.3129 92.8191 76.0355 92.3322 75.9335C91.8473 75.8223 91.3655 75.8733 90.8868 76.0864C90.3938 76.3059 90.1137 76.5982 90.0465 76.9634C89.9864 77.3253 90.1472 77.7239 90.5288 78.159L91.9675 79.7995C92.3748 80.264 92.8103 80.5566 93.2737 80.6773C93.7392 80.7889 94.2327 80.7286 94.7543 80.4964ZM102.157 78.5987C101.271 78.9932 100.385 79.1098 99.498 78.9485C98.6064 78.7814 97.8021 78.2891 97.0854 77.4718L95.724 75.9195C95.0279 75.1257 94.7672 74.4037 94.9421 73.7535C95.1119 73.0975 95.6397 72.5722 96.5256 72.1778C97.4187 71.7802 98.3127 71.6724 99.2075 71.8545C100.104 72.0275 100.901 72.5109 101.597 73.3047L102.958 74.857C103.675 75.6743 103.943 76.4051 103.763 77.0494C103.585 77.6847 103.05 78.2011 102.157 78.5987ZM101.275 77.5933C101.811 77.3547 102.098 77.0592 102.137 76.7068C102.182 76.3512 102.009 75.9499 101.617 75.5031L100.179 73.8625C99.7817 73.4098 99.3397 73.1324 98.8528 73.0303C98.3679 72.9191 97.8861 72.9701 97.4074 73.1833C96.9144 73.4028 96.6343 73.6951 96.5671 74.0602C96.507 74.4222 96.6678 74.8207 97.0494 75.2558L98.4881 76.8963C98.8955 77.3609 99.3309 77.6535 99.7944 77.7741C100.26 77.8858 100.753 77.8255 101.275 77.5933ZM108.677 75.6956C107.791 76.09 106.905 76.2066 106.019 76.0453C105.127 75.8782 104.323 75.386 103.606 74.5686L102.245 73.0163C101.548 72.2225 101.288 71.5005 101.463 70.8504C101.632 70.1943 102.16 69.6691 103.046 69.2746C103.939 68.877 104.833 68.7692 105.728 68.9513C106.625 69.1243 107.421 69.6077 108.118 70.4015L109.479 71.9539C110.196 72.7712 110.464 73.502 110.284 74.1463C110.106 74.7815 109.57 75.2979 108.677 75.6956ZM107.796 74.6901C108.331 74.4515 108.619 74.156 108.657 73.8036C108.703 73.448 108.53 73.0468 108.138 72.5999L106.699 70.9594C106.302 70.5066 105.86 70.2292 105.373 70.1271C104.889 70.016 104.407 70.067 103.928 70.2801C103.435 70.4996 103.155 70.7919 103.088 71.157C103.028 71.519 103.188 71.9175 103.57 72.3527L105.009 73.9932C105.416 74.4577 105.852 74.7503 106.315 74.871C106.78 74.9826 107.274 74.9223 107.796 74.6901ZM113.25 71.7958L112.461 70.8961L113.447 70.4571L113.029 69.9809L112.043 70.4198L111.254 69.5202L112.24 69.0812L109.888 66.3999L113.018 65.0067C113.482 64.7999 113.951 64.6891 114.425 64.6744C114.906 64.6565 115.363 64.7353 115.795 64.9108C116.222 65.0804 116.59 65.3417 116.899 65.6945L117.008 65.8179C117.317 66.1707 117.482 66.5226 117.501 66.8736C117.528 67.2214 117.425 67.5454 117.191 67.8455C116.953 68.1398 116.608 68.3872 116.158 68.5876L114.444 69.351L114.861 69.8273L117.24 68.768L118.029 69.6677L115.65 70.7269L116.718 71.9441L115.303 72.5739L114.236 71.3568L113.25 71.7958ZM113.655 68.4514L115.23 67.75C115.551 67.6068 115.753 67.4231 115.834 67.1988C115.911 66.9686 115.846 66.7359 115.639 66.5007L115.562 66.4125C115.351 66.1714 115.086 66.0278 114.767 65.9816C114.455 65.9323 114.135 65.9808 113.807 66.1271L112.231 66.8285L113.655 68.4514Z" fill="white"/>
<path d="M92.9513 150.798L80.0842 136.126L94.1916 129.845L107.059 144.517L103.288 146.196L92.692 134.113L86.1252 137.037L96.7216 149.12L92.9513 150.798ZM120.286 128.399C121.283 129.537 122.015 130.649 122.482 131.736C122.954 132.802 123.135 133.826 123.025 134.809C122.931 135.784 122.499 136.69 121.73 137.528C120.977 138.359 119.876 139.096 118.428 139.741C116.98 140.386 115.558 140.771 114.164 140.897C112.774 141.001 111.442 140.88 110.166 140.534C108.895 140.167 107.676 139.595 106.509 138.819C105.359 138.036 104.286 137.075 103.289 135.938C101.955 134.418 101.095 132.962 100.71 131.572C100.34 130.175 100.51 128.89 101.217 127.717C101.93 126.524 103.26 125.494 105.207 124.627C107.138 123.767 109.004 123.374 110.805 123.449C112.594 123.509 114.287 123.975 115.884 124.845C117.485 125.694 118.952 126.879 120.286 128.399ZM107.277 134.191C108.178 135.219 109.111 136.032 110.076 136.631C111.041 137.23 112.031 137.58 113.045 137.681C114.059 137.781 115.091 137.598 116.139 137.132C117.221 136.65 117.913 136.066 118.213 135.379C118.531 134.686 118.515 133.902 118.166 133.029C117.833 132.149 117.217 131.195 116.315 130.167C114.958 128.619 113.545 127.562 112.077 126.997C110.609 126.431 109.076 126.504 107.478 127.216C106.413 127.69 105.721 128.274 105.404 128.968C105.086 129.662 105.094 130.449 105.426 131.329C105.759 132.21 106.376 133.164 107.277 134.191ZM127.825 114.871L130.078 117.439L122.587 120.775L133.201 132.878L129.431 134.557L116.564 119.885L127.825 114.871ZM151.584 124.693L147.222 121.778L140.731 124.668L142.496 128.74L138.426 130.552L131.797 113.017L136.416 110.96L155.654 122.881L151.584 124.693ZM139.745 116.735C139.458 116.54 139.091 116.293 138.645 115.996C138.2 115.699 137.748 115.396 137.291 115.085C136.833 114.775 136.443 114.501 136.119 114.264C136.276 114.575 136.46 114.969 136.671 115.447C136.886 115.903 137.089 116.346 137.28 116.776C137.476 117.184 137.607 117.478 137.673 117.658L139.391 121.636L144.035 119.569L139.745 116.735ZM179.336 112.338L156.913 122.321L144.046 107.649L147.817 105.97L158.413 118.053L163.956 115.585L153.36 103.502L157.155 101.812L167.751 113.895L173.295 111.427L162.698 99.3443L166.468 97.6657L179.336 112.338ZM193.096 106.211L182.834 110.78L169.967 96.1079L180.229 91.5389L182.464 94.087L175.972 96.9774L178.801 100.204L184.844 97.5133L187.078 100.061L181.036 102.752L184.352 106.533L190.844 103.642L193.096 106.211ZM210.414 98.5006L206.644 100.179L201.093 93.8502L194.027 96.9962L199.578 103.325L195.807 105.004L182.94 90.3319L186.711 88.6533L191.756 94.4071L198.823 91.261L193.777 85.5072L197.547 83.8286L210.414 98.5006ZM223.629 82.3879C224.626 83.525 225.359 84.6371 225.826 85.7243C226.298 86.7904 226.479 87.8147 226.368 88.7972C226.275 89.7723 225.843 90.6789 225.073 91.5168C224.32 92.3473 223.22 93.0849 221.772 93.7297C220.323 94.3745 218.902 94.7596 217.508 94.8852C216.118 94.9896 214.785 94.8687 213.509 94.5224C212.238 94.155 211.019 93.5833 209.853 92.8074C208.703 92.024 207.63 91.0639 206.632 89.9268C205.299 88.4062 204.439 86.9508 204.053 85.5606C203.684 84.1631 203.853 82.8781 204.561 81.7058C205.273 80.5124 206.603 79.4821 208.551 78.615C210.482 77.7553 212.348 77.3626 214.149 77.4369C215.938 77.4976 217.631 77.963 219.227 78.8333C220.828 79.6824 222.296 80.8673 223.629 82.3879ZM210.62 88.1798C211.521 89.2072 212.455 90.0204 213.42 90.6194C214.385 91.2183 215.374 91.5682 216.388 91.6691C217.403 91.7699 218.434 91.5869 219.483 91.12C220.565 90.6382 221.256 90.0542 221.557 89.3679C221.874 88.6742 221.859 87.8907 221.509 87.0175C221.177 86.137 220.56 85.1829 219.659 84.1555C218.302 82.6074 216.889 81.5507 215.421 80.9852C213.953 80.4197 212.42 80.4927 210.822 81.2042C209.756 81.6785 209.065 82.2625 208.748 82.9563C208.43 83.65 208.438 84.4371 208.77 85.3177C209.103 86.1983 209.719 87.1523 210.62 88.1798Z" fill="white"/>
<g opacity="0.4" filter="url(#filter2_d_3_1929)">
<path d="M139.428 55.5606L136.299 51.9929L136.968 51.6952L140.096 55.2628L139.428 55.5606ZM141.477 54.6482L138.245 52.5933L138.92 52.2927L141.595 54.0568L141.694 54.0127L140.642 51.5262L141.317 51.2257L142.492 54.196L141.477 54.6482ZM144.817 53.2602C144.598 53.3576 144.375 53.4144 144.148 53.4304C143.925 53.4446 143.71 53.4152 143.503 53.3423C143.299 53.2675 143.123 53.1451 142.974 52.9752C142.822 52.8019 142.747 52.6372 142.747 52.4809C142.749 52.3195 142.812 52.1712 142.934 52.0363C143.061 51.8995 143.236 51.7814 143.459 51.6822L144.388 51.2686L144.245 51.1055C144.117 50.9594 143.96 50.8661 143.775 50.8255C143.591 50.785 143.387 50.8143 143.164 50.9136C142.945 51.011 142.815 51.1279 142.774 51.2643C142.733 51.4008 142.753 51.5452 142.835 51.6976L142.102 51.8043C142.033 51.6464 142.004 51.4891 142.016 51.3326C142.029 51.1709 142.097 51.0156 142.219 50.8667C142.341 50.7179 142.53 50.5865 142.786 50.4725C143.182 50.2961 143.567 50.2405 143.94 50.3059C144.313 50.3713 144.633 50.5569 144.902 50.8627L145.809 51.8973C145.898 51.9993 146.001 52.0245 146.116 51.973L146.377 51.8572L146.761 52.2955L146.284 52.5078C146.14 52.5722 145.995 52.594 145.851 52.5733C145.706 52.5525 145.588 52.4895 145.495 52.3842L145.482 52.3689L145.389 52.4102C145.401 52.4759 145.403 52.5574 145.397 52.6548C145.39 52.7522 145.346 52.8548 145.262 52.9628C145.176 53.0673 145.028 53.1665 144.817 53.2602ZM144.53 52.7856C144.786 52.6717 144.94 52.5203 144.993 52.3315C145.042 52.1394 144.975 51.938 144.79 51.7273L144.745 51.6763L143.854 52.0734C143.684 52.1487 143.575 52.24 143.525 52.3471C143.473 52.4508 143.497 52.5604 143.599 52.6759C143.7 52.7915 143.834 52.8593 144.001 52.8795C144.168 52.8996 144.344 52.8684 144.53 52.7856ZM147.133 52.1297L144.93 49.617L145.555 49.3386L145.886 49.7157L145.985 49.6716C145.954 49.5439 145.973 49.4028 146.045 49.2483C146.116 49.0938 146.298 48.9513 146.591 48.8208C146.822 48.7179 147.064 48.6693 147.316 48.6752C147.572 48.6793 147.82 48.7365 148.06 48.8469C148.298 48.9538 148.512 49.116 148.702 49.3335L150.025 50.8421L149.388 51.1261L148.1 49.6582C147.91 49.4408 147.704 49.3105 147.482 49.2674C147.258 49.2209 147.03 49.2491 146.799 49.352C146.534 49.4697 146.384 49.6357 146.348 49.8501C146.317 50.0626 146.42 50.3048 146.658 50.5766L147.771 51.8457L147.133 52.1297ZM152.008 49.9594L148.879 46.3918L149.548 46.094L152.677 49.6616L152.008 49.9594ZM154.057 49.047L150.826 46.9921L151.501 46.6916L154.176 48.4557L154.275 48.4115L153.222 45.9251L153.897 45.6245L155.073 48.5949L154.057 49.047ZM157.397 47.6591C157.179 47.7565 156.956 47.8132 156.729 47.8293C156.506 47.8435 156.291 47.8141 156.083 47.7411C155.88 47.6663 155.703 47.544 155.555 47.3741C155.403 47.2008 155.327 47.036 155.328 46.8798C155.33 46.7183 155.392 46.5701 155.515 46.4351C155.642 46.2983 155.816 46.1803 156.039 46.081L156.968 45.6674L156.825 45.5044C156.697 45.3583 156.541 45.2649 156.356 45.2244C156.171 45.1838 155.967 45.2132 155.744 45.3124C155.525 45.4099 155.395 45.5268 155.354 45.6632C155.313 45.7996 155.334 45.944 155.416 46.0965L154.683 46.2032C154.613 46.0452 154.584 45.888 154.596 45.7315C154.609 45.5697 154.677 45.4144 154.799 45.2656C154.921 45.1167 155.11 44.9853 155.366 44.8714C155.762 44.6949 156.147 44.6394 156.52 44.7048C156.893 44.7702 157.214 44.9558 157.482 45.2616L158.389 46.2962C158.479 46.3981 158.581 46.4233 158.697 46.3719L158.957 46.2561L159.341 46.6944L158.864 46.9067C158.72 46.971 158.576 46.9928 158.431 46.9721C158.287 46.9514 158.168 46.8884 158.076 46.783L158.062 46.7677L157.969 46.8091C157.981 46.8748 157.984 46.9563 157.977 47.0536C157.971 47.151 157.926 47.2537 157.843 47.3616C157.756 47.4662 157.608 47.5653 157.397 47.6591ZM157.11 47.1845C157.366 47.0705 157.521 46.9192 157.573 46.7304C157.623 46.5382 157.555 46.3368 157.371 46.1261L157.326 46.0752L156.434 46.4722C156.265 46.5476 156.155 46.6388 156.106 46.7459C156.053 46.8497 156.078 46.9593 156.179 47.0748C156.28 47.1903 156.414 47.2582 156.581 47.2783C156.748 47.2985 156.925 47.2672 157.11 47.1845ZM159.714 46.5285L157.51 44.0159L158.136 43.7374L158.467 44.1146L158.566 44.0704C158.534 43.9428 158.554 43.8017 158.625 43.6472C158.696 43.4927 158.878 43.3501 159.171 43.2196C159.403 43.1167 159.644 43.0682 159.896 43.0741C160.152 43.0782 160.401 43.1354 160.641 43.2457C160.878 43.3526 161.092 43.5148 161.283 43.7323L162.606 45.2409L161.968 45.5249L160.681 44.0571C160.49 43.8396 160.284 43.7093 160.062 43.6662C159.838 43.6197 159.61 43.6479 159.379 43.7509C159.115 43.8685 158.965 44.0345 158.929 44.2489C158.897 44.4615 159 44.7037 159.239 44.9755L160.352 46.2445L159.714 46.5285ZM164.769 44.3769C164.464 44.5129 164.147 44.5833 163.818 44.588C163.49 44.5874 163.173 44.5206 162.867 44.3876C162.561 44.2546 162.292 44.0556 162.059 43.7906L161.992 43.7141C161.76 43.4491 161.628 43.1911 161.598 42.9402C161.564 42.6858 161.619 42.4536 161.762 42.2435C161.909 42.0316 162.135 41.8576 162.441 41.7216C162.746 41.5855 163.065 41.5169 163.397 41.5156C163.728 41.5143 164.047 41.5802 164.353 41.7132C164.657 41.8428 164.924 42.0401 165.157 42.3052L165.224 42.3816C165.456 42.6466 165.589 42.9063 165.623 43.1606C165.656 43.415 165.6 43.6481 165.453 43.8601C165.303 44.0686 165.075 44.2409 164.769 44.3769ZM164.358 43.908C164.639 43.783 164.802 43.6089 164.847 43.3856C164.893 43.157 164.802 42.9119 164.573 42.6503L164.532 42.6045C164.303 42.3428 164.037 42.1776 163.736 42.1087C163.431 42.0364 163.137 42.0636 162.852 42.1905C162.575 42.3136 162.414 42.4895 162.367 42.718C162.322 42.9413 162.414 43.1838 162.644 43.4454L162.684 43.4913C162.913 43.7529 163.18 43.9199 163.485 43.9922C163.79 44.0592 164.081 44.0312 164.358 43.908ZM167.436 43.0906L164.204 41.0356L164.879 40.7351L167.554 42.4992L167.653 42.4551L166.601 39.9686L167.276 39.668L168.451 42.6384L167.436 43.0906Z" fill="white"/>
</g>
<line y1="-0.488801" x2="68.4321" y2="-0.488801" transform="matrix(0.913545 -0.406737 0.659347 0.751838 58.2689 94.6202)" stroke="#F7E794" stroke-width="0.977601"/>
<line y1="-0.488801" x2="68.4321" y2="-0.488801" transform="matrix(0.913545 -0.406737 0.659347 0.751838 58.2689 94.6202)" stroke="#F7E794" stroke-width="0.977601"/>
<line y1="-0.488801" x2="68.4321" y2="-0.488801" transform="matrix(0.913545 -0.406737 0.659347 0.751838 56.9798 93.1502)" stroke="#F7E794" stroke-width="0.977601"/>
<line y1="-0.488801" x2="68.4321" y2="-0.488801" transform="matrix(0.913545 -0.406737 0.659347 0.751838 56.9798 93.1502)" stroke="#F7E794" stroke-width="0.977601"/>
<line y1="-0.488801" x2="68.4321" y2="-0.488801" transform="matrix(0.913545 -0.406737 0.659347 0.751838 57.6244 93.8852)" stroke="white" stroke-width="0.977601"/>
</g>
<rect x="0.313602" y="0.0688061" width="138.369" height="84.138" rx="6.18076" transform="matrix(0.913545 -0.406737 0.659347 0.751838 41.7268 84.5866)" stroke="url(#paint2_radial_3_1929)" stroke-width="0.398758"/>
<rect x="0.313602" y="0.0688061" width="138.369" height="84.138" rx="6.18076" transform="matrix(0.913545 -0.406737 0.659347 0.751838 41.7268 84.5866)" stroke="url(#paint3_radial_3_1929)" stroke-width="0.398758"/>
<rect x="0.313602" y="0.0688061" width="138.369" height="84.138" rx="6.18076" transform="matrix(0.913545 -0.406737 0.659347 0.751838 41.7268 84.5866)" stroke="url(#paint4_radial_3_1929)" stroke-width="0.398758"/>
</g>
<defs>
<filter id="filter0_d_3_1929" x="-2.64428" y="-1.02666" width="262.51" height="200" filterUnits="userSpaceOnUse" color-interpolation-filters="sRGB">
<feFlood flood-opacity="0" result="BackgroundImageFix"/>
<feColorMatrix in="SourceAlpha" type="matrix" values="0 0 0 0 0 0 0 0 0 0 0 0 0 0 0 0 0 0 127 0" result="hardAlpha"/>
<feOffset dx="-4.38933" dy="10.9733"/>
<feGaussianBlur stdDeviation="20"/>
<feComposite in2="hardAlpha" operator="out"/>
<feColorMatrix type="matrix" values="0 0 0 0 0.737549 0 0 0 0 0.651872 0 0 0 0 0.223485 0 0 0 1 0"/>
<feBlend mode="normal" in2="BackgroundImageFix" result="effect1_dropShadow_3_1929"/>
<feBlend mode="normal" in="SourceGraphic" in2="effect1_dropShadow_3_1929" result="shape"/>
</filter>
<filter id="filter1_f_3_1929" x="36.9356" y="31.8964" width="250.653" height="171.627" filterUnits="userSpaceOnUse" color-interpolation-filters="sRGB">
<feFlood flood-opacity="0" result="BackgroundImageFix"/>
<feBlend mode="normal" in="SourceGraphic" in2="BackgroundImageFix" result="shape"/>
<feGaussianBlur stdDeviation="14.3553" result="effect1_foregroundBlur_3_1929"/>
</filter>
<filter id="filter2_d_3_1929" x="135.9" y="38.613" width="34.0405" height="18.2152" filterUnits="userSpaceOnUse" color-interpolation-filters="sRGB">
<feFlood flood-opacity="0" result="BackgroundImageFix"/>
<feColorMatrix in="SourceAlpha" type="matrix" values="0 0 0 0 0 0 0 0 0 0 0 0 0 0 0 0 0 0 127 0" result="hardAlpha"/>
<feOffset dy="0.797517"/>
<feGaussianBlur stdDeviation="0.199379"/>
<feComposite in2="hardAlpha" operator="out"/>
<feColorMatrix type="matrix" values="0 0 0 0 0 0 0 0 0 0 0 0 0 0 0 0 0 0 0.25 0"/>
<feBlend mode="normal" in2="BackgroundImageFix" result="effect1_dropShadow_3_1929"/>
<feBlend mode="normal" in="SourceGraphic" in2="effect1_dropShadow_3_1929" result="shape"/>
</filter>
<linearGradient id="paint0_linear_3_1929" x1="69.384" y1="0" x2="69.384" y2="84.5368" gradientUnits="userSpaceOnUse">
<stop stop-color="#FBEE88"/>
<stop offset="1" stop-color="#E0B330"/>
</linearGradient>
<linearGradient id="paint1_linear_3_1929" x1="140.02" y1="98.6122" x2="159.754" y2="142.936" gradientUnits="userSpaceOnUse">
<stop stop-color="#E0B330"/>
<stop offset="0.511012" stop-color="#FBEE88"/>
<stop offset="1" stop-color="#E0B330"/>
</linearGradient>
<radialGradient id="paint2_radial_3_1929" cx="0" cy="0" r="1" gradientUnits="userSpaceOnUse" gradientTransform="translate(168.32 31.947) rotate(174.425) scale(227.646 57.6884)">
<stop stop-color="white"/>
<stop offset="1" stop-color="white" stop-opacity="0"/>
</radialGradient>
<radialGradient id="paint3_radial_3_1929" cx="0" cy="0" r="1" gradientUnits="userSpaceOnUse" gradientTransform="translate(-12.4206 -49.1493) rotate(30.6396) scale(133.409 80.5988)">
<stop stop-color="white"/>
<stop offset="1" stop-color="white" stop-opacity="0"/>
</radialGradient>
<radialGradient id="paint4_radial_3_1929" cx="0" cy="0" r="1" gradientUnits="userSpaceOnUse" gradientTransform="translate(-55.6785 114.19) rotate(-5.33944) scale(170.775 43.0899)">
<stop stop-color="white"/>
<stop offset="1" stop-color="white" stop-opacity="0"/>
</radialGradient>
<clipPath id="clip0_3_1929">
<rect width="138.768" height="84.5368" rx="6.38013" transform="matrix(0.913545 -0.406737 0.659347 0.751838 41.7451 84.442)" fill="white"/>
</clipPath>
</defs>
</svg>
