<svg width="254" height="193" viewBox="0 0 254 193" fill="none" xmlns="http://www.w3.org/2000/svg">
<g filter="url(#filter0_d_1_149)">
<g clip-path="url(#clip0_1_149)">
<rect width="138.76" height="84.5322" rx="6.37979" transform="matrix(0.913545 -0.406737 0.659347 0.751838 40.75 76.439)" fill="#5B82FF"/>
<path d="M64.983 86.703C64.4186 86.9543 63.8463 87.0946 63.2661 87.124C62.6859 87.1534 62.1367 87.0709 61.6186 86.8765C61.1024 86.673 60.6586 86.3596 60.2874 85.9363L60.1482 85.7776L61.5199 85.1668L61.6281 85.2903C61.9169 85.6196 62.2882 85.8221 62.7422 85.898C63.191 85.968 63.644 85.9012 64.1012 85.6976C64.5656 85.4908 64.8429 85.2407 64.9331 84.9471C65.0304 84.6503 64.9579 84.3637 64.7156 84.0874L64.6382 83.9992C64.4732 83.811 64.282 83.6836 64.0646 83.6169C63.8471 83.5502 63.6188 83.5333 63.3795 83.5663C63.135 83.5934 62.8913 83.661 62.6484 83.7691L61.1481 84.4371L60.0653 83.2024L61.5591 81.0658L61.4353 80.9246L57.6417 82.6137L56.76 81.6082L62.0753 79.2417L63.3902 80.741L61.9953 82.7355L62.119 82.8766L62.5155 82.7001C62.8513 82.5506 63.2254 82.4617 63.6377 82.4335C64.0572 82.4021 64.4736 82.4578 64.887 82.6008C65.2953 82.7378 65.6619 82.9916 65.9867 83.362L66.0796 83.4678C66.4302 83.8676 66.6191 84.27 66.6463 84.6748C66.6684 85.0737 66.5373 85.451 66.253 85.8064C65.9707 86.1529 65.5474 86.4517 64.983 86.703ZM73.9655 82.5321L72.8672 81.2797L69.1807 82.921L68.036 81.6157L67.4582 76.8451L69.923 75.7477L73.3571 79.6635L74.6002 79.1101L75.482 80.1155L74.2389 80.669L75.3372 81.9213L73.9655 82.5321ZM69.6064 81.3335L71.9854 80.2743L69.1855 77.0816L68.9926 77.1675L69.4826 81.1924L69.6064 81.3335ZM79.74 80.1328C79.1541 80.3936 78.5721 80.5342 77.9939 80.5545C77.4229 80.5717 76.8864 80.4753 76.3845 80.2655C75.8826 80.0557 75.4512 79.745 75.0902 79.3334L75.0129 79.2452L76.406 78.6249L76.4756 78.7043C76.7334 78.9983 77.0731 79.1986 77.4944 79.3053C77.9178 79.403 78.3653 79.3468 78.8368 79.1369C79.3083 78.9269 79.5789 78.6634 79.6484 78.3463C79.72 78.0201 79.6088 77.6895 79.3149 77.3543L79.2376 77.2661C78.9488 76.9369 78.5908 76.7325 78.1634 76.653C77.7432 76.5703 77.3438 76.6132 76.9651 76.7818C76.7579 76.874 76.6071 76.9739 76.5126 77.0814C76.4181 77.1888 76.359 77.2969 76.3351 77.4057C76.3112 77.5144 76.3017 77.6168 76.3064 77.7128L74.6454 78.4523L71.6134 74.9951L76.7359 72.7144L77.6331 73.7375L73.8823 75.4074L75.2049 76.9155L75.3978 76.8296C75.4022 76.7214 75.4342 76.605 75.4938 76.4803C75.5534 76.3557 75.659 76.2269 75.8106 76.094C75.9623 75.9611 76.1703 75.8358 76.4346 75.7181C76.8776 75.5209 77.3482 75.4176 77.8467 75.4082C78.3451 75.3989 78.8329 75.4964 79.3103 75.7009C79.7895 75.8963 80.22 76.2115 80.6015 76.6466L80.6944 76.7524C81.0759 77.1875 81.2916 77.6147 81.3414 78.034C81.3984 78.4501 81.2935 78.8402 81.0267 79.2042C80.7547 79.5624 80.3258 79.8719 79.74 80.1328ZM86.3467 77.0196L85.2484 75.7672L81.5619 77.4085L80.4172 76.1032L79.8394 71.3326L82.3042 70.2352L85.7383 74.1511L86.9814 73.5976L87.8632 74.603L86.6201 75.1565L87.7184 76.4089L86.3467 77.0196ZM81.9876 75.821L84.3666 74.7618L81.5667 71.5691L81.3738 71.655L81.8638 75.6799L81.9876 75.821ZM94.6385 73.4995C93.7526 73.8939 92.8665 74.0105 91.98 73.8492C91.0884 73.6821 90.2842 73.1899 89.5675 72.3726L88.2062 70.8204C87.5101 70.0266 87.2495 69.3047 87.4244 68.6546C87.5941 67.9985 88.1219 67.4733 89.0078 67.0789C89.9008 66.6813 90.7947 66.5735 91.6895 66.7556C92.5863 66.9286 93.3827 67.412 94.0788 68.2057L95.4401 69.758C96.1568 70.5753 96.4252 71.306 96.2452 71.9503C96.0671 72.5855 95.5316 73.1019 94.6385 73.4995ZM93.7568 72.4941C94.2926 72.2555 94.5799 71.96 94.6185 71.6076C94.6643 71.252 94.4912 70.8508 94.0993 70.404L92.6607 68.7636C92.2637 68.3108 91.8217 68.0334 91.3349 67.9313C90.85 67.8202 90.3682 67.8712 89.8895 68.0843C89.3966 68.3038 89.1165 68.5961 89.0493 68.9612C88.9892 69.3231 89.15 69.7217 89.5315 70.1568L90.9701 71.7972C91.3775 72.2617 91.8129 72.5543 92.2763 72.6749C92.7418 72.7866 93.2353 72.7263 93.7568 72.4941ZM101.159 70.5965C100.273 70.9909 99.3867 71.1075 98.5003 70.9462C97.6087 70.7791 96.8045 70.2869 96.0878 69.4696L94.7265 67.9174C94.0304 67.1236 93.7698 66.4017 93.9447 65.7515C94.1144 65.0955 94.6422 64.5703 95.5281 64.1759C96.4211 63.7783 97.315 63.6705 98.2098 63.8526C99.1066 64.0256 99.903 64.509 100.599 65.3027L101.96 66.855C102.677 67.6722 102.945 68.403 102.765 69.0473C102.587 69.6825 102.052 70.1989 101.159 70.5965ZM100.277 69.5911C100.813 69.3525 101.1 69.057 101.139 68.7046C101.185 68.349 101.011 67.9478 100.62 67.501L99.181 65.8605C98.784 65.4078 98.342 65.1304 97.8551 65.0283C97.3702 64.9172 96.8885 64.9682 96.4098 65.1813C95.9169 65.4008 95.6368 65.6931 95.5695 66.0582C95.5095 66.4201 95.6702 66.8187 96.0518 67.2537L97.4904 68.8942C97.8978 69.3587 98.3332 69.6513 98.7966 69.7719C99.2621 69.8835 99.7555 69.8233 100.277 69.5911ZM107.679 67.6935C106.793 68.0879 105.907 68.2045 105.021 68.0432C104.129 67.8761 103.325 67.3839 102.608 66.5666L101.247 65.0144C100.551 64.2206 100.29 63.4987 100.465 62.8485C100.635 62.1925 101.162 61.6673 102.048 61.2729C102.941 60.8753 103.835 60.7675 104.73 60.9496C105.627 61.1226 106.423 61.606 107.119 62.3997L108.481 63.952C109.197 64.7692 109.466 65.5 109.286 66.1443C109.108 66.7795 108.572 67.2959 107.679 67.6935ZM106.797 66.688C107.333 66.4495 107.62 66.154 107.659 65.8016C107.705 65.446 107.532 65.0448 107.14 64.598L105.701 62.9575C105.304 62.5048 104.862 62.2274 104.375 62.1253C103.891 62.0142 103.409 62.0652 102.93 62.2783C102.437 62.4978 102.157 62.7901 102.09 63.1552C102.03 63.5171 102.19 63.9156 102.572 64.3507L104.011 65.9912C104.418 66.4557 104.853 66.7482 105.317 66.8689C105.782 66.9805 106.276 66.9202 106.797 66.688ZM112.251 63.7939L111.462 62.8943L112.448 62.4553L112.03 61.9791L111.045 62.418L110.256 61.5184L111.242 61.0795L108.89 58.3984L112.019 57.0051C112.484 56.7984 112.953 56.6876 113.427 56.6729C113.908 56.655 114.364 56.7338 114.796 56.9093C115.223 57.0789 115.591 57.3401 115.901 57.6929L116.009 57.8164C116.318 58.1692 116.483 58.521 116.503 58.872C116.529 59.2197 116.426 59.5437 116.193 59.8439C115.954 60.1381 115.61 60.3855 115.16 60.5859L113.445 61.3493L113.863 61.8255L116.242 60.7663L117.031 61.6659L114.652 62.7251L115.719 63.9422L114.304 64.572L113.237 63.3549L112.251 63.7939ZM112.656 60.4497L114.231 59.7483C114.553 59.6052 114.754 59.4214 114.836 59.1971C114.912 58.967 114.847 58.7343 114.641 58.4991L114.563 58.4109C114.352 58.1698 114.087 58.0262 113.768 57.9801C113.457 57.9307 113.137 57.9792 112.808 58.1255L111.233 58.8269L112.656 60.4497Z" fill="white"/>
<path d="M91.961 142.795L79.0946 128.124L93.2012 121.843L106.068 136.514L102.298 138.193L91.7017 126.111L85.1352 129.034L95.7311 141.116L91.961 142.795ZM119.294 120.397C120.291 121.534 121.023 122.646 121.49 123.733C121.962 124.799 122.143 125.824 122.033 126.806C121.939 127.781 121.507 128.688 120.738 129.525C119.985 130.356 118.884 131.094 117.436 131.738C115.988 132.383 114.567 132.768 113.173 132.894C111.783 132.998 110.45 132.877 109.175 132.531C107.903 132.164 106.685 131.592 105.518 130.816C104.368 130.033 103.295 129.073 102.298 127.936C100.964 126.415 100.105 124.96 99.7187 123.57C99.3495 122.172 99.5187 120.887 100.227 119.715C100.939 118.522 102.269 117.491 104.216 116.624C106.147 115.765 108.013 115.372 109.814 115.446C111.603 115.507 113.296 115.972 114.892 116.843C116.493 117.692 117.96 118.877 119.294 120.397ZM106.286 126.189C107.187 127.216 108.12 128.029 109.085 128.628C110.05 129.227 111.039 129.577 112.053 129.678C113.068 129.779 114.099 129.596 115.148 129.129C116.23 128.647 116.921 128.063 117.222 127.377C117.539 126.683 117.523 125.9 117.174 125.026C116.842 124.146 116.225 123.192 115.324 122.165C113.966 120.617 112.554 119.56 111.086 118.994C109.618 118.429 108.085 118.502 106.487 119.213C105.422 119.688 104.73 120.272 104.413 120.965C104.095 121.659 104.103 122.446 104.435 123.327C104.768 124.207 105.385 125.161 106.286 126.189ZM126.833 106.869L129.085 109.438L121.595 112.773L132.209 124.875L128.439 126.554L115.572 111.883L126.833 106.869ZM150.591 116.691L146.229 113.776L139.738 116.666L141.503 120.737L137.433 122.549L130.804 105.015L135.423 102.959L154.661 114.879L150.591 116.691ZM138.752 108.734C138.465 108.538 138.098 108.292 137.653 107.995C137.207 107.698 136.756 107.394 136.298 107.083C135.841 106.773 135.45 106.499 135.127 106.262C135.284 106.573 135.467 106.968 135.678 107.445C135.893 107.902 136.096 108.345 136.288 108.774C136.483 109.182 136.614 109.476 136.68 109.656L138.398 113.634L143.042 111.567L138.752 108.734ZM178.34 104.336L155.92 114.319L143.053 99.6473L146.823 97.9688L157.419 110.051L162.962 107.583L152.366 95.501L156.161 93.8113L166.757 105.894L172.3 103.426L161.704 91.3435L165.474 89.665L178.34 104.336ZM192.101 98.2098L181.839 102.779L168.973 88.1073L179.234 83.5385L181.469 86.0865L174.977 88.9767L177.806 92.2027L183.848 89.5126L186.083 92.0605L180.041 94.7507L183.357 98.5315L189.848 95.6413L192.101 98.2098ZM209.417 90.4999L205.647 92.1784L200.097 85.8497L193.031 88.9956L198.581 95.3243L194.811 97.0029L181.945 82.3316L185.715 80.6531L190.761 86.4065L197.826 83.2606L192.781 77.5072L196.551 75.8286L209.417 90.4999ZM222.632 74.388C223.629 75.525 224.361 76.6371 224.828 77.7242C225.3 78.7902 225.481 79.8145 225.371 80.797C225.277 81.7721 224.845 82.6785 224.076 83.5164C223.323 84.3469 222.222 85.0845 220.774 85.7292C219.326 86.3739 217.905 86.7591 216.511 86.8846C215.121 86.989 213.788 86.8681 212.513 86.5218C211.241 86.1545 210.023 85.5828 208.856 84.8069C207.706 84.0236 206.633 83.0635 205.636 81.9265C204.302 80.406 203.443 78.9507 203.057 77.5606C202.687 76.1631 202.857 74.8782 203.565 73.706C204.277 72.5126 205.607 71.4824 207.554 70.6153C209.485 69.7557 211.351 69.363 213.152 69.4373C214.941 69.498 216.634 69.9634 218.23 70.8336C219.831 71.6827 221.298 72.8675 222.632 74.388ZM209.624 80.1796C210.525 81.207 211.458 82.0201 212.423 82.6191C213.388 83.218 214.377 83.5679 215.391 83.6687C216.406 83.7695 217.437 83.5865 218.486 83.1196C219.568 82.6379 220.259 82.0539 220.56 81.3676C220.877 80.6739 220.861 79.8905 220.512 79.0174C220.18 78.1369 219.563 77.1829 218.662 76.1555C217.304 74.6076 215.892 73.5509 214.424 72.9854C212.956 72.4199 211.423 72.4929 209.825 73.2044C208.76 73.6787 208.068 74.2627 207.751 74.9563C207.433 75.65 207.441 76.4372 207.773 77.3177C208.106 78.1982 208.723 79.1522 209.624 80.1796Z" fill="white"/>
<g opacity="0.4" filter="url(#filter1_d_1_149)">
<path d="M138.429 47.5586L135.3 43.9912L135.969 43.6934L139.098 47.2609L138.429 47.5586ZM140.478 46.6463L137.247 44.5915L137.922 44.2909L140.597 46.0549L140.696 46.0108L139.643 43.5245L140.318 43.224L141.494 46.1941L140.478 46.6463ZM143.818 45.2584C143.599 45.3558 143.377 45.4125 143.15 45.4286C142.927 45.4428 142.711 45.4134 142.504 45.3404C142.301 45.2656 142.124 45.1433 141.975 44.9734C141.823 44.8001 141.748 44.6354 141.749 44.4792C141.751 44.3177 141.813 44.1695 141.936 44.0345C142.062 43.8977 142.237 43.7797 142.46 43.6804L143.389 43.2669L143.246 43.1038C143.118 42.9577 142.962 42.8644 142.777 42.8238C142.592 42.7833 142.388 42.8126 142.165 42.9119C141.946 43.0093 141.816 43.1262 141.775 43.2626C141.734 43.399 141.755 43.5435 141.837 43.6959L141.104 43.8026C141.034 43.6446 141.005 43.4874 141.017 43.3309C141.03 43.1691 141.098 43.0139 141.22 42.865C141.342 42.7162 141.531 42.5848 141.787 42.4709C142.183 42.2944 142.568 42.2389 142.941 42.3043C143.314 42.3696 143.635 42.5552 143.903 42.861L144.81 43.8956C144.9 43.9975 145.002 44.0227 145.118 43.9713L145.378 43.8555L145.762 44.2937L145.285 44.506C145.141 44.5704 144.996 44.5922 144.852 44.5715C144.707 44.5507 144.589 44.4877 144.497 44.3824L144.483 44.3671L144.39 44.4085C144.402 44.4741 144.405 44.5556 144.398 44.653C144.392 44.7504 144.347 44.853 144.264 44.961C144.177 45.0655 144.029 45.1647 143.818 45.2584ZM143.531 44.7838C143.787 44.6699 143.942 44.5185 143.994 44.3298C144.044 44.1376 143.976 43.9362 143.791 43.7256L143.747 43.6746L142.855 44.0716C142.686 44.147 142.576 44.2382 142.527 44.3453C142.474 44.449 142.499 44.5586 142.6 44.6742C142.701 44.7897 142.835 44.8575 143.002 44.8777C143.169 44.8978 143.346 44.8666 143.531 44.7838ZM146.135 44.1279L143.931 41.6154L144.557 41.3369L144.887 41.7141L144.986 41.67C144.955 41.5423 144.975 41.4012 145.046 41.2467C145.117 41.0922 145.299 40.9497 145.592 40.8192C145.823 40.7163 146.065 40.6678 146.317 40.6737C146.573 40.6777 146.821 40.7349 147.062 40.8453C147.299 40.9522 147.513 41.1144 147.704 41.3318L149.026 42.8404L148.389 43.1243L147.101 41.6566C146.911 41.4391 146.705 41.3089 146.483 41.2658C146.259 41.2193 146.031 41.2475 145.8 41.3504C145.535 41.468 145.385 41.634 145.35 41.8484C145.318 42.061 145.421 42.3031 145.66 42.5749L146.772 43.8439L146.135 44.1279ZM151.009 41.9578L147.88 38.3903L148.549 38.0926L151.678 41.66L151.009 41.9578ZM153.058 41.0454L149.827 38.9906L150.502 38.6901L153.176 40.4541L153.276 40.41L152.223 37.9236L152.898 37.6231L154.073 40.5933L153.058 41.0454ZM156.398 39.6575C156.179 39.755 155.956 39.8117 155.729 39.8277C155.506 39.8419 155.291 39.8126 155.084 39.7396C154.88 39.6648 154.704 39.5425 154.555 39.3726C154.403 39.1993 154.328 39.0345 154.328 38.8783C154.33 38.7168 154.393 38.5686 154.515 38.4337C154.642 38.2969 154.817 38.1789 155.04 38.0796L155.969 37.666L155.826 37.503C155.698 37.3569 155.541 37.2635 155.356 37.223C155.172 37.1824 154.968 37.2118 154.745 37.311C154.526 37.4085 154.396 37.5254 154.355 37.6618C154.314 37.7982 154.334 37.9426 154.416 38.0951L153.683 38.2017C153.614 38.0438 153.585 37.8866 153.597 37.73C153.61 37.5683 153.678 37.413 153.8 37.2642C153.922 37.1154 154.111 36.984 154.367 36.87C154.763 36.6936 155.148 36.638 155.521 36.7034C155.894 36.7688 156.214 36.9544 156.483 37.2602L157.39 38.2947C157.479 38.3966 157.582 38.4219 157.697 38.3704L157.957 38.2546L158.342 38.6929L157.865 38.9052C157.72 38.9695 157.576 38.9913 157.432 38.9706C157.287 38.9499 157.169 38.8869 157.076 38.7816L157.063 38.7663L156.97 38.8076C156.982 38.8733 156.984 38.9548 156.978 39.0522C156.971 39.1495 156.926 39.2522 156.843 39.3601C156.757 39.4647 156.609 39.5638 156.398 39.6575ZM156.111 39.183C156.367 39.069 156.521 38.9177 156.574 38.7289C156.623 38.5368 156.556 38.3354 156.371 38.1247L156.326 38.0737L155.435 38.4708C155.265 38.5461 155.156 38.6374 155.106 38.7445C155.054 38.8482 155.078 38.9578 155.18 39.0733C155.281 39.1888 155.415 39.2567 155.582 39.2768C155.749 39.297 155.925 39.2657 156.111 39.183ZM158.714 38.5271L156.511 36.0146L157.136 35.7361L157.467 36.1132L157.566 36.0691C157.535 35.9415 157.554 35.8004 157.625 35.6459C157.697 35.4914 157.879 35.3489 158.172 35.2184C158.403 35.1154 158.645 35.0669 158.897 35.0728C159.153 35.0769 159.401 35.1341 159.641 35.2444C159.879 35.3514 160.093 35.5136 160.283 35.731L161.606 37.2395L160.968 37.5235L159.681 36.0557C159.49 35.8383 159.284 35.708 159.063 35.6649C158.838 35.6184 158.611 35.6466 158.379 35.7495C158.115 35.8672 157.965 36.0332 157.929 36.2476C157.898 36.4601 158.001 36.7023 158.239 36.9741L159.352 38.2431L158.714 38.5271ZM163.769 36.3756C163.464 36.5116 163.147 36.5819 162.818 36.5866C162.49 36.5861 162.173 36.5193 161.867 36.3863C161.561 36.2533 161.292 36.0543 161.06 35.7892L160.993 35.7128C160.76 35.4478 160.629 35.1898 160.598 34.9389C160.564 34.6846 160.619 34.4524 160.762 34.2423C160.909 34.0304 161.135 33.8564 161.441 33.7204C161.746 33.5844 162.065 33.5157 162.397 33.5144C162.729 33.5131 163.048 33.579 163.354 33.712C163.657 33.8416 163.924 34.0389 164.157 34.3039L164.224 34.3804C164.456 34.6454 164.589 34.9051 164.623 35.1594C164.657 35.4137 164.6 35.6468 164.453 35.8587C164.303 36.0673 164.075 36.2396 163.769 36.3756ZM163.358 35.9067C163.639 35.7817 163.802 35.6076 163.847 35.3843C163.894 35.1558 163.802 34.9107 163.573 34.6491L163.532 34.6032C163.303 34.3416 163.038 34.1763 162.736 34.1074C162.432 34.0351 162.137 34.0624 161.852 34.1892C161.575 34.3124 161.414 34.4882 161.368 34.7168C161.322 34.94 161.414 35.1825 161.644 35.4441L161.684 35.49C161.913 35.7516 162.18 35.9185 162.485 35.9908C162.791 36.0579 163.082 36.0299 163.358 35.9067ZM166.436 35.0893L163.204 33.0345L163.879 32.7339L166.554 34.498L166.653 34.4538L165.601 31.9675L166.276 31.667L167.451 34.6371L166.436 35.0893Z" fill="white"/>
</g>
<line y1="-0.488774" x2="68.4284" y2="-0.488774" transform="matrix(0.913545 -0.406737 0.659347 0.751838 57.273 86.6166)" stroke="#5B82FF" stroke-width="0.977548"/>
<line y1="-0.488774" x2="68.4284" y2="-0.488774" transform="matrix(0.913545 -0.406737 0.659347 0.751838 57.273 86.6166)" stroke="#5B82FF" stroke-width="0.977548"/>
<line y1="-0.488774" x2="68.4284" y2="-0.488774" transform="matrix(0.913545 -0.406737 0.659347 0.751838 55.9839 85.1467)" stroke="#5B82FF" stroke-width="0.977548"/>
<line y1="-0.488774" x2="68.4284" y2="-0.488774" transform="matrix(0.913545 -0.406737 0.659347 0.751838 55.9839 85.1467)" stroke="#5B82FF" stroke-width="0.977548"/>
<line y1="-0.488774" x2="68.4284" y2="-0.488774" transform="matrix(0.913545 -0.406737 0.659347 0.751838 56.6284 85.8816)" stroke="white" stroke-width="0.977548"/>
</g>
<rect x="0.313585" y="0.0688023" width="138.362" height="84.1334" rx="6.18042" transform="matrix(0.913545 -0.406737 0.659347 0.751838 40.7318 76.5836)" stroke="url(#paint0_radial_1_149)" stroke-width="0.398737"/>
<rect x="0.313585" y="0.0688023" width="138.362" height="84.1334" rx="6.18042" transform="matrix(0.913545 -0.406737 0.659347 0.751838 40.7318 76.5836)" stroke="url(#paint1_radial_1_149)" stroke-width="0.398737"/>
<rect x="0.313585" y="0.0688023" width="138.362" height="84.1334" rx="6.18042" transform="matrix(0.913545 -0.406737 0.659347 0.751838 40.7318 76.5836)" stroke="url(#paint2_radial_1_149)" stroke-width="0.398737"/>
</g>
<defs>
<filter id="filter0_d_1_149" x="-2.09708" y="-1.42352" width="255.952" height="193.446" filterUnits="userSpaceOnUse" color-interpolation-filters="sRGB">
<feFlood flood-opacity="0" result="BackgroundImageFix"/>
<feColorMatrix in="SourceAlpha" type="matrix" values="0 0 0 0 0 0 0 0 0 0 0 0 0 0 0 0 0 0 127 0" result="hardAlpha"/>
<feOffset dx="-6.12102" dy="15.3025"/>
<feGaussianBlur stdDeviation="18.363"/>
<feComposite in2="hardAlpha" operator="out"/>
<feColorMatrix type="matrix" values="0 0 0 0 0 0 0 0 0 0 0 0 0 0 0 0 0 0 0.3 0"/>
<feBlend mode="normal" in2="BackgroundImageFix" result="effect1_dropShadow_1_149"/>
<feBlend mode="normal" in="SourceGraphic" in2="effect1_dropShadow_1_149" result="shape"/>
</filter>
<filter id="filter1_d_1_149" x="134.902" y="30.612" width="34.0387" height="18.2142" filterUnits="userSpaceOnUse" color-interpolation-filters="sRGB">
<feFlood flood-opacity="0" result="BackgroundImageFix"/>
<feColorMatrix in="SourceAlpha" type="matrix" values="0 0 0 0 0 0 0 0 0 0 0 0 0 0 0 0 0 0 127 0" result="hardAlpha"/>
<feOffset dy="0.797473"/>
<feGaussianBlur stdDeviation="0.199368"/>
<feComposite in2="hardAlpha" operator="out"/>
<feColorMatrix type="matrix" values="0 0 0 0 0 0 0 0 0 0 0 0 0 0 0 0 0 0 0.25 0"/>
<feBlend mode="normal" in2="BackgroundImageFix" result="effect1_dropShadow_1_149"/>
<feBlend mode="normal" in="SourceGraphic" in2="effect1_dropShadow_1_149" result="shape"/>
</filter>
<radialGradient id="paint0_radial_1_149" cx="0" cy="0" r="1" gradientUnits="userSpaceOnUse" gradientTransform="translate(168.311 31.9453) rotate(174.425) scale(227.633 57.6853)">
<stop stop-color="white"/>
<stop offset="1" stop-color="white" stop-opacity="0"/>
</radialGradient>
<radialGradient id="paint1_radial_1_149" cx="0" cy="0" r="1" gradientUnits="userSpaceOnUse" gradientTransform="translate(-12.4199 -49.1466) rotate(30.6396) scale(133.401 80.5945)">
<stop stop-color="white"/>
<stop offset="1" stop-color="white" stop-opacity="0"/>
</radialGradient>
<radialGradient id="paint2_radial_1_149" cx="0" cy="0" r="1" gradientUnits="userSpaceOnUse" gradientTransform="translate(-55.6755 114.184) rotate(-5.33944) scale(170.765 43.0876)">
<stop stop-color="white"/>
<stop offset="1" stop-color="white" stop-opacity="0"/>
</radialGradient>
<clipPath id="clip0_1_149">
<rect width="138.76" height="84.5322" rx="6.37979" transform="matrix(0.913545 -0.406737 0.659347 0.751838 40.75 76.439)" fill="white"/>
</clipPath>
</defs>
</svg>
